<svg width="21" height="18" viewBox="0 0 21 18" fill="none" xmlns="http://www.w3.org/2000/svg">
<path d="M8.46107 0.364014H1.44802C0.842835 0.364014 0.352234 0.871089 0.352234 1.4966V6.933C0.352234 7.55851 0.842835 8.06559 1.44802 8.06559H8.46107C9.06626 8.06559 9.55686 7.55851 9.55686 6.933V1.4966C9.55686 0.871089 9.06626 0.364014 8.46107 0.364014Z" stroke="#707070" stroke-width="0.89" stroke-miterlimit="10"/>
<path d="M7.82705 3.15503H2.07416" stroke="#707070" stroke-width="0.89" stroke-miterlimit="10"/>
<path d="M6.52775 5.26648H2.07416" stroke="#707070" stroke-width="0.89" stroke-miterlimit="10"/>
<path d="M19.552 0.364014H12.539C11.9338 0.364014 11.4432 0.871089 11.4432 1.4966V6.933C11.4432 7.55851 11.9338 8.06559 12.539 8.06559H19.552C20.1572 8.06559 20.6478 7.55851 20.6478 6.933V1.4966C20.6478 0.871089 20.1572 0.364014 19.552 0.364014Z" stroke="#707070" stroke-width="0.89" stroke-miterlimit="10"/>
<path d="M18.918 3.15503H13.173" stroke="#707070" stroke-width="0.89" stroke-miterlimit="10"/>
<path d="M17.6266 5.26648H13.173" stroke="#707070" stroke-width="0.89" stroke-miterlimit="10"/>
<path d="M8.46107 9.93433H1.44802C0.842835 9.93433 0.352234 10.4414 0.352234 11.0669V16.5033C0.352234 17.1288 0.842835 17.6359 1.44802 17.6359H8.46107C9.06626 17.6359 9.55686 17.1288 9.55686 16.5033V11.0669C9.55686 10.4414 9.06626 9.93433 8.46107 9.93433Z" stroke="#707070" stroke-width="0.89" stroke-miterlimit="10"/>
<path d="M7.82705 12.7334H2.07416" stroke="#707070" stroke-width="0.89" stroke-miterlimit="10"/>
<path d="M6.52775 14.8448H2.07416" stroke="#707070" stroke-width="0.89" stroke-miterlimit="10"/>
<path d="M19.552 9.93433H12.539C11.9338 9.93433 11.4432 10.4414 11.4432 11.0669V16.5033C11.4432 17.1288 11.9338 17.6359 12.539 17.6359H19.552C20.1572 17.6359 20.6478 17.1288 20.6478 16.5033V11.0669C20.6478 10.4414 20.1572 9.93433 19.552 9.93433Z" stroke="#707070" stroke-width="0.89" stroke-miterlimit="10"/>
<path d="M18.918 12.7334H13.173" stroke="#707070" stroke-width="0.89" stroke-miterlimit="10"/>
<path d="M17.6266 14.8448H13.173" stroke="#707070" stroke-width="0.89" stroke-miterlimit="10"/>
</svg>
