<?xml version="1.0" encoding="UTF-8"?>
<svg id="_レイヤー_1" data-name="レイヤー_1" xmlns="http://www.w3.org/2000/svg" version="1.1" viewBox="0 0 21 18">
  <!-- Generator: Adobe Illustrator 29.8.3, SVG Export Plug-In . SVG Version: 2.1.1 Build 3)  -->
  <defs>
    <style>
      .st0 {
        fill: none;
        stroke: #7f7f7f;
        stroke-miterlimit: 10;
        stroke-width: .9px;
      }
    </style>
  </defs>
  <path class="st0" d="M8.5.4H1.4C.8.4.4.9.4,1.5v5.4c0,.6.5,1.1,1.1,1.1h7c.6,0,1.1-.5,1.1-1.1V1.5c0-.6-.5-1.1-1.1-1.1Z"/>
  <path class="st0" d="M7.8,3.2H2.1"/>
  <path class="st0" d="M6.5,5.3H2.1"/>
  <path class="st0" d="M19.6.4h-7c-.6,0-1.1.5-1.1,1.1v5.4c0,.6.5,1.1,1.1,1.1h7c.6,0,1.1-.5,1.1-1.1V1.5c0-.6-.5-1.1-1.1-1.1Z"/>
  <path class="st0" d="M18.9,3.2h-5.7"/>
  <path class="st0" d="M17.6,5.3h-4.5"/>
  <path class="st0" d="M8.5,9.9H1.4c-.6,0-1.1.5-1.1,1.1v5.4c0,.6.5,1.1,1.1,1.1h7c.6,0,1.1-.5,1.1-1.1v-5.4c0-.6-.5-1.1-1.1-1.1Z"/>
  <path class="st0" d="M7.8,12.7H2.1"/>
  <path class="st0" d="M6.5,14.8H2.1"/>
  <path class="st0" d="M19.6,9.9h-7c-.6,0-1.1.5-1.1,1.1v5.4c0,.6.5,1.1,1.1,1.1h7c.6,0,1.1-.5,1.1-1.1v-5.4c0-.6-.5-1.1-1.1-1.1Z"/>
  <path class="st0" d="M18.9,12.7h-5.7"/>
  <path class="st0" d="M17.6,14.8h-4.5"/>
</svg>